<?xml version="1.0" encoding="UTF-8"?>
<svg id="_图层_1" data-name="图层 1" xmlns="http://www.w3.org/2000/svg" viewBox="0 0 50 50">
  <defs>
    
  </defs>
  <path class="cls-1" d="M39.34,21.15l6.35-10.65,.08-.14c.33-.63,.31-1.38-.06-1.99-.37-.61-1.02-.98-1.74-.98H27.03v-2.86c0-1.12-.91-2.03-2.03-2.03H8.53v-.22c0-1.25-1.02-2.26-2.27-2.26h0c-1.25,0-2.27,1.01-2.27,2.27V48.16c.06,1.06,.97,1.89,2.03,1.84h.19c1.05-.11,1.84-.98,1.84-2.03V28.58h1.75c.92,3.07,3.68,6.32,6.62,6.32h27.71c.71-.07,1.32-.48,1.64-1.13,.32-.64,.28-1.39-.1-1.98l-6.36-10.64Zm-4.12-1.09l-.1,.18c-.31,.63-.27,1.4,.1,1.98l5.09,8.62H16.92c-1.87,0-2.63-2.26-2.63-2.26h10.71c1.12,0,2.03-.91,2.03-2.03V11.44h13.24l-5.06,8.62ZM22.97,6.55V24.51H8.67V6.55h14.3Z"/>
</svg>
