<?xml version="1.0" encoding="UTF-8"?>
<svg id="_图层_1" data-name="图层 1" xmlns="http://www.w3.org/2000/svg" viewBox="0 0 50 50">
  <defs>
    <style>
      .cls-1 {
        opacity: .15;
      }

      
    </style>
  </defs>
  <rect class="cls-2" x="7.18" y="14.77" width="13.39" height="3" transform="translate(-7.38 13.98) rotate(-43.39)"/>
  <rect class="cls-2" x="32.11" y="4.2" width="3" height="14.45" transform="translate(8.24 36.25) rotate(-63.15)"/>
  <rect class="cls-2" x="28.76" y="27.5" width="19.54" height="3" transform="translate(-4.11 51.52) rotate(-64.8)"/>
  <rect class="cls-2" x="17.25" y="21.96" width="3" height="24.38" transform="translate(-20.16 32.11) rotate(-58.23)"/>
  <circle class="cls-1" cx="22.48" cy="7.68" r="6.05"/>
  <path class="cls-2" d="M22.48,4.63c1.68,0,3.05,1.37,3.05,3.05s-1.37,3.05-3.05,3.05-3.05-1.37-3.05-3.05,1.37-3.05,3.05-3.05m0-3c-3.34,0-6.05,2.71-6.05,6.05s2.71,6.05,6.05,6.05,6.05-2.71,6.05-6.05-2.71-6.05-6.05-6.05h0Z"/>
  <circle class="cls-1" cx="6.05" cy="24.29" r="6.05"/>
  <path class="cls-2" d="M6.05,21.24c1.68,0,3.05,1.37,3.05,3.05s-1.37,3.05-3.05,3.05-3.05-1.37-3.05-3.05,1.37-3.05,3.05-3.05m0-3C2.71,18.24,0,20.95,0,24.29s2.71,6.05,6.05,6.05,6.05-2.71,6.05-6.05-2.71-6.05-6.05-6.05h0Z"/>
  <circle class="cls-1" cx="43.95" cy="16.27" r="6.05"/>
  <path class="cls-2" d="M43.95,13.22c1.68,0,3.05,1.37,3.05,3.05s-1.37,3.05-3.05,3.05-3.05-1.37-3.05-3.05,1.37-3.05,3.05-3.05m0-3c-3.34,0-6.05,2.71-6.05,6.05s2.71,6.05,6.05,6.05,6.05-2.71,6.05-6.05-2.71-6.05-6.05-6.05h0Z"/>
  <circle class="cls-1" cx="33.22" cy="42.32" r="6.05"/>
  <path class="cls-2" d="M33.22,39.27c1.68,0,3.05,1.37,3.05,3.05s-1.37,3.05-3.05,3.05-3.05-1.37-3.05-3.05,1.37-3.05,3.05-3.05m0-3c-3.34,0-6.05,2.71-6.05,6.05s2.71,6.05,6.05,6.05,6.05-2.71,6.05-6.05-2.71-6.05-6.05-6.05h0Z"/>
</svg>
