<?xml version="1.0" encoding="UTF-8"?>
<svg id="_图层_1" data-name="图层 1" xmlns="http://www.w3.org/2000/svg" viewBox="0 0 50 50">
  <defs>
    <style>
      .cls-2 {
        opacity: .15;
      }
    </style>
  </defs>
  <g class="cls-2">
    <path class="cls-1" d="M48.59,12.98l-13.94-7.73-6.64,13.81,6.84-4.65s4.26,11.12,.2,17.13c-.85,1.26-2.07,2.2-3.46,2.79-1.05,.44-2.55,1.2-6.58,1.2s-5.53-.75-6.58-1.2c-1.39-.58-2.61-1.52-3.46-2.79-4.06-6.01,.2-17.13,.2-17.13l6.84,4.65L15.36,5.25,1.42,12.98l8.56-.16c-2.68,6.44-5.8,16.6-4.91,23.97,.37,3.04,.23,7.96,7.73,7.96h24.41c7.59,0,7.36-4.92,7.73-7.96,.89-7.37-2.23-17.53-4.91-23.97l8.56,.16Z"/>
  </g>
  <path class="cls-1" d="M37.21,46.16H12.79c-8.18,0-8.75-5.52-9.05-8.49-.03-.25-.05-.49-.08-.72-.94-7.81,2.34-17.79,4.21-22.68l-6.43,.12h-.03c-.64,0-1.2-.43-1.37-1.05-.17-.63,.11-1.29,.68-1.6L14.67,4.01c.34-.19,.75-.23,1.12-.11,.37,.12,.68,.38,.85,.74l6.64,13.81c.28,.58,.13,1.27-.35,1.69-.48,.42-1.19,.46-1.72,.1l-5.29-3.59c-.95,3.2-2.5,10.1,.21,14.11,.67,.99,1.65,1.78,2.83,2.27l.21,.09c.98,.42,2.33,.99,5.82,.99s4.84-.57,5.82-.99l.21-.09c1.19-.5,2.17-1.28,2.83-2.27,2.71-4.02,1.16-10.91,.21-14.11l-5.29,3.59c-.53,.36-1.24,.32-1.72-.1-.49-.42-.63-1.11-.35-1.69l6.64-13.81c.17-.35,.47-.62,.85-.74,.37-.12,.77-.08,1.12,.11l13.94,7.73c.57,.32,.85,.98,.68,1.6-.17,.62-.73,1.05-1.37,1.05h-.03l-6.43-.12c1.87,4.89,5.15,14.87,4.21,22.68-.03,.25-.06,.52-.08,.79-.29,2.94-.83,8.42-9.05,8.42ZM9.98,11.4c.47,0,.91,.23,1.17,.62,.27,.4,.32,.9,.14,1.34-2.86,6.85-5.62,16.55-4.81,23.25,.03,.25,.06,.5,.08,.77,.31,3.06,.61,5.95,6.24,5.95h24.41c5.66,0,5.94-2.85,6.23-5.86,.03-.3,.06-.58,.09-.85,.81-6.7-1.96-16.4-4.81-23.25-.18-.44-.13-.95,.14-1.34,.27-.4,.73-.63,1.2-.62l2.87,.05-7.65-4.24-3.71,7.72,2.49-1.69c.36-.24,.81-.31,1.22-.18,.41,.13,.74,.44,.9,.84,.19,.48,4.48,11.88,.05,18.43-.98,1.45-2.39,2.59-4.09,3.3l-.2,.08c-1.14,.49-2.87,1.22-6.93,1.22s-5.79-.74-6.93-1.22l-.2-.08c-1.7-.71-3.11-1.85-4.09-3.3-4.42-6.55-.13-17.95,.05-18.43,.15-.4,.49-.71,.9-.84,.41-.13,.86-.06,1.22,.18l2.49,1.69-3.71-7.72-7.65,4.24,2.87-.05h.03Z"/>
</svg>
