<?xml version="1.0" encoding="UTF-8"?>
<svg id="_图层_1" data-name="图层 1" xmlns="http://www.w3.org/2000/svg" viewBox="0 0 50 50">
  <defs>
    
  </defs>
  <path class="cls-1" d="M42,11.35c-.94-2.12-2.27-4.03-3.97-5.66C34.54,2.34,29.92,.5,25,.5s-9.54,1.84-13.03,5.19c-1.7,1.63-3.04,3.54-3.97,5.66-.97,2.2-1.46,4.54-1.46,6.96,0,3.26,.92,6.44,2.7,9.27l14.23,21.1c.35,.51,.92,.82,1.54,.82h0c.62,0,1.2-.31,1.54-.82l14.25-21.17c1.74-2.77,2.66-5.96,2.66-9.21,0-2.41-.49-4.75-1.46-6.96Zm-2.26,6.96c0,2.54-.72,5.03-2.07,7.2l-12.66,18.8L12.34,25.52c-1.36-2.18-2.08-4.67-2.08-7.21,0-7.76,6.61-14.08,14.74-14.08s14.74,6.32,14.74,14.08Z"/>
  <path class="cls-1" d="M25,9.59c-4.92,0-8.93,3.88-8.93,8.65s4.01,8.65,8.93,8.65,8.94-3.88,8.94-8.65-4.01-8.65-8.94-8.65Zm5.21,8.65c0,2.72-2.34,4.93-5.21,4.93s-5.21-2.21-5.21-4.93,2.34-4.93,5.21-4.93,5.21,2.21,5.21,4.93Z"/>
</svg>
