<?xml version="1.0" encoding="UTF-8"?>
<svg id="_图层_1" data-name="图层 1" xmlns="http://www.w3.org/2000/svg" viewBox="0 0 50 50">
  <defs>
    
  </defs>
  <path class="cls-1" d="M45.49,49.2l-9.24-9.85c-3.8,2.81-9.25,4.96-13.98,4.96-12.63,0-22.79-10.57-22.12-23.35C.74,9.78,9.9,.62,21.08,.03c12.78-.67,23.35,9.49,23.35,22.12,0,4.73-1.92,10.19-4.73,13.99l9.44,9.54c.99,1,.97,2.63-.05,3.61h0c-1.02,.98-2.64,.93-3.6-.09Zm-23.23-9.74c9.56,.1,17.39-7.57,17.49-17.13,.1-9.56-7.57-17.39-17.13-17.49-.12,0-.25,0-.37,0-9.56,.1-17.23,7.93-17.13,17.49,.1,9.42,7.71,17.03,17.13,17.13Z"/>
</svg>
