<?xml version="1.0" encoding="UTF-8"?>
<svg id="_图层_1" data-name="图层 1" xmlns="http://www.w3.org/2000/svg" viewBox="0 0 50 50">
  <defs>
    
  </defs>
  <path class="cls-1" d="M25,50C11.19,50,0,38.81,0,25S11.19,0,25,0s24.38,10.59,24.97,23.87c-1.63-1.52-3.44-2.59-5.45-3.21-1.58-7.08-6.85-12.75-13.8-14.83,2.23,4.74,3.62,9.83,4.09,15.05-2.03,.75-3.86,1.97-5.48,3.67-.89,.92-1.65,1.9-2.26,2.94h-7c.38,6.1,2.12,11.82,4.92,16.88,.47-.85,.92-1.72,1.32-2.61,.36,.79,1.52,2.67,2.81,4.27s2.68,2.97,2.68,2.97c0,0-4.36,.99-6.82,.99h0Zm4.92-27.5c-.36-5.92-2.04-11.69-4.92-16.88-2.88,5.19-4.56,10.96-4.92,16.88h9.85Zm-24.77,0H15.07c.31-5.78,1.74-11.44,4.21-16.67-7.59,2.27-13.13,8.81-14.12,16.67Zm35.74,26.57l6.17-6.39c3.91-4.04,3.91-10.6,0-14.64-3.72-3.9-9.89-4.06-13.8-.34-.12,.11-.23,.22-.34,.34-3.91,4.04-3.91,10.6,0,14.64l6.17,6.39c.48,.5,1.27,.51,1.77,.03,.01-.01,.02-.02,.03-.03h0Zm-21.62-4.9c-2.47-5.23-3.9-10.89-4.21-16.67H5.15c.99,7.86,6.53,14.39,14.12,16.67Zm24.2-12.66c2.03,2.1,2.03,5.59,0,7.69l-3.47,3.6-3.47-3.59c-2.03-2.11-2.03-5.59,0-7.7,1.8-1.92,4.81-2.02,6.73-.22,.08,.07,.15,.15,.22,.22h0Z"/>
</svg>
