<?xml version="1.0" encoding="UTF-8"?>
<svg id="_图层_1" data-name="图层 1" xmlns="http://www.w3.org/2000/svg" viewBox="0 0 50 50">
  <defs>
    
  </defs>
  <path class="cls-1" d="M41.02,16.19L26.42,1.59c-.09-.09-.2-.18-.31-.25-.05-.03-.1-.05-.15-.08-.06-.04-.13-.07-.2-.1-.07-.03-.13-.04-.2-.06-.06-.02-.11-.04-.17-.05-.26-.05-.52-.05-.78,0-.06,.01-.12,.03-.17,.05-.07,.02-.13,.04-.2,.06-.07,.03-.13,.07-.2,.1-.05,.03-.1,.05-.15,.08-.11,.07-.21,.16-.31,.25l-14.6,14.6c-.78,.78-.78,2.05,0,2.83,.39,.39,.9,.59,1.41,.59s1.02-.2,1.41-.59L23,7.83V47c0,1.1,.9,2,2,2s2-.9,2-2V7.83s11.19,11.19,11.19,11.19c.39,.39,.9,.59,1.41,.59s1.02-.2,1.41-.59c.78-.78,.78-2.05,0-2.83Z"/>
</svg>
