<?xml version="1.0" encoding="UTF-8"?>
<svg id="_图层_1" data-name="图层 1" xmlns="http://www.w3.org/2000/svg" viewBox="0 0 50 50">
  <defs>
    
  </defs>
  <path class="cls-1" d="M48.95,12.81L37.19,1.05c-1.39-1.39-3.66-1.4-5.05,0,0,0,0,0,0,0L1.05,32.14c-1.39,1.39-1.4,3.66,0,5.05,0,0,0,0,0,0l11.76,11.76c1.39,1.39,3.66,1.4,5.05,0,0,0,0,0,0,0l31.1-31.09c1.39-1.39,1.4-3.66,0-5.05,0,0,0,0,0,0M15.33,46.43L3.57,34.67l7.14-7.14,5.88,5.88c.7,.7,1.83,.7,2.53,0,.7-.7,.7-1.83,0-2.53l-5.88-5.88,4.62-4.62,5.88,5.88c.7,.7,1.83,.7,2.53,0s.7-1.83,0-2.53l-5.88-5.88,4.62-4.62,5.88,5.88c.7,.7,1.83,.7,2.53,0,.7-.7,.7-1.83,0-2.53l-5.88-5.88,7.14-7.14,11.76,11.76L15.33,46.43Z"/>
</svg>
