<?xml version="1.0" encoding="UTF-8"?>
<svg id="_图层_1" data-name="图层 1" xmlns="http://www.w3.org/2000/svg" viewBox="0 0 50 50">
  <defs>
    
  </defs>
  <path class="cls-1" d="M43.17,10.18h-8.31V4.98c0-2.1-1.71-3.8-3.8-3.8h-12.11c-2.1,0-3.8,1.71-3.8,3.8v5.2H6.83C3.07,10.18,0,13.24,0,17.01v24.98c0,3.77,3.07,6.83,6.83,6.83H43.17c3.77,0,6.83-3.06,6.83-6.83V17.01c0-3.77-3.06-6.83-6.83-6.83Zm-26.25,15.93c.06,4.41,3.66,7.98,8.08,7.98s8.02-3.57,8.08-7.98h12.34v15.88c0,1.24-1.01,2.25-2.25,2.25H6.83c-1.24,0-2.25-1.01-2.25-2.25v-15.88h12.34Zm3.88,0h8.4c-.06,2.27-1.91,4.1-4.2,4.1s-4.14-1.83-4.2-4.1Zm-1.08-15.93v-2.99c0-.79,.64-1.44,1.44-1.44h7.69c.79,0,1.44,.64,1.44,1.44v2.99h-10.56ZM6.83,14.76H43.17c1.24,0,2.25,1.01,2.25,2.25v4.52s-40.84,0-40.84,0v-4.52c0-1.24,1.01-2.25,2.25-2.25Z"/>
</svg>
