<?xml version="1.0" encoding="UTF-8"?>
<svg id="_图层_1" data-name="图层 1" xmlns="http://www.w3.org/2000/svg" viewBox="0 0 50 50">
  <defs>
    
  </defs>
  <path class="cls-1" d="M41.64,4.15c-1.08,0-2.15,.28-3.11,.82-.05-.09-.1-.18-.15-.27-.04-.07-.09-.15-.13-.22-.14-.22-.29-.43-.45-.63,0,0-.01-.02-.02-.03-.18-.22-.38-.43-.59-.62-.02-.02-.04-.03-.06-.05-1.19-1.08-2.72-1.63-4.25-1.63-.41,0-.81,.05-1.21,.13-.05,0-.1,.02-.14,.03-.22,.05-.43,.1-.65,.17-.11,.04-.22,.08-.33,.12-.16,.06-.31,.12-.46,.19-.17,.08-.33,.18-.49,.28-.09,.06-.19,.1-.28,.17-.01,0-.02,.01-.03,.02-2.31-3.26-7.11-3.49-9.77-.67-1.11-.85-2.54-1.35-4.14-1.35-3.56,0-6.46,2.9-6.46,6.46v10.98l-5.43,7.24c-2.29,3.05-2.08,7.3,.5,10.11l11.04,12.04c1.5,1.63,3.62,2.57,5.84,2.57h13.48c8.36,0,13.76-5.4,13.76-13.76V11.24c0-4.65-3.25-7.09-6.46-7.09Zm2.29,32.09c0,6-3.58,9.58-9.58,9.58h-13.48c-1.05,0-2.05-.44-2.76-1.21l-11.04-12.05c-1.22-1.33-1.32-3.34-.24-4.78l2.09-2.79h0c0,1.15,.93,2.08,2.09,2.08s2.09-.93,2.09-2.09V7.07c0-1.26,1.03-2.29,2.29-2.29,1.14,0,2.29,.6,2.29,1.95v6.17c0,1.15,.93,2.09,2.09,2.09s2.09-.93,2.09-2.09V7.07c0-2.15,1.23-2.92,2.29-2.92,.58,0,1.12,.22,1.52,.63,.5,.51,.77,1.3,.77,2.29v5.84c0,1.15,.93,2.09,2.09,2.09s2.09-.93,2.09-2.09v-4.3c0-2.15,1.23-2.92,2.29-2.92,.14,0,.28,.01,.41,.04,.11,.02,.21,.05,.32,.09,.03,0,.06,.01,.08,.02,.26,.1,.51,.27,.73,.49,.12,.12,.22,.25,.31,.4,.04,.06,.06,.14,.1,.2,.05,.1,.11,.21,.15,.32,.03,.09,.05,.19,.07,.28,.03,.11,.06,.22,.08,.34,.03,.22,.05,.46,.05,.72v4.3c0,1.15,.93,2.09,2.09,2.09s2.09-.93,2.09-2.09v-1.67c0-2.15,1.23-2.92,2.29-2.92s2.29,.76,2.29,2.92v25.01Z"/>
</svg>
