<?xml version="1.0" encoding="UTF-8"?>
<svg id="_图层_1" data-name="图层 1" xmlns="http://www.w3.org/2000/svg" viewBox="0 0 50 50">
  <defs>
    <style>
      .cls-1 {
        opacity: .15;
      }

    </style>
  </defs>
  <path class="cls-1" d="M24.67,1.52L10.47,20.51c-.24,.35,.17,.78,.53,.57l6.52-2.39c.27-.16,.6,.04,.6,.34v29.22c0,.22,.18,.4,.4,.4h12.97c.22,0,.4-.18,.4-.4V19.03c0-.31,.33-.5,.6-.34l6.52,2.29c.37,.21,.77-.22,.53-.57L25.33,1.52c-.16-.23-.5-.23-.66,0Z"/>
  <path class="cls-2" d="M40.95,20.65c0,.43-.16,.85-.47,1.17-.52,.56-1.32,.71-2,.39l-5.24-1.84v27.87c0,.96-.78,1.75-1.75,1.75h-12.97c-.96,0-1.75-.78-1.75-1.75V20.4l-5.23,1.91c-.68,.32-1.49,.17-2.01-.39-.56-.6-.63-1.49-.17-2.17L23.58,.73c.33-.46,.86-.73,1.42-.73s1.12,.29,1.45,.77l14.16,18.83c.23,.33,.34,.7,.34,1.05Zm-7.93-3.2l3.54,1.24L25.01,3.33l-11.52,15.4,3.5-1.28c.51-.24,1.11-.22,1.6,.07,.54,.31,.88,.89,.88,1.52v28.27h11.07V19.03c0-.62,.34-1.21,.88-1.52,.49-.28,1.09-.3,1.59-.07ZM24.25,2.33s.03,.04,.04,.06l-.04-.06Z"/>
</svg>
