<?xml version="1.0" encoding="UTF-8"?>
<svg id="_图层_1" data-name="图层 1" xmlns="http://www.w3.org/2000/svg" viewBox="0 0 50 50">
  <defs>
    <style>

      .cls-2 {
        opacity: .15;
      }
    </style>
  </defs>
  <g class="cls-2">
    <path class="cls-1" d="M24.93,1.51L12.22,18.58c-.16,.19,0,.48,.25,.44l8.24-3.08c.18-.03,.34,.13,.31,.31l-5.29,32.03c-.03,.16,.1,.31,.26,.31h18.28c.17,0,.29-.15,.26-.31l-5.29-32.03c-.03-.18,.13-.34,.31-.31l7.97,3.57c.25,.04,.41-.25,.25-.44L25.33,1.51c-.11-.12-.3-.12-.41,0Z"/>
  </g>
  <path class="cls-1" d="M39.25,19.24c0,.28-.07,.57-.21,.82-.35,.61-1.04,.95-1.74,.84l-.35-.11-5.96-2.67,4.94,29.91c.08,.49-.06,.99-.38,1.36s-.79,.59-1.28,.59H15.99c-.49,0-.96-.22-1.28-.59-.32-.38-.46-.88-.38-1.36l4.97-30.07-6.59,2.44c-.7,.11-1.39-.22-1.74-.84-.33-.6-.27-1.33,.15-1.87L23.85,.59C24.17,.21,24.64,0,25.13,0s.96,.21,1.28,.58l.08,.11,12.42,17.53c.23,.3,.35,.66,.35,1.02Zm-11.43-3.04c0-.44,.18-.88,.49-1.19,.38-.38,.93-.56,1.46-.47l.18,.03,4.24,1.9L25.11,3.64l-9.43,12.67,4.8-1.77c.53-.09,1.08,.09,1.46,.47,.38,.38,.56,.93,.47,1.46l-5.07,30.7h15.58l-5.07-30.69c-.01-.09-.02-.18-.02-.27Z"/>
</svg>
