<?xml version="1.0" encoding="UTF-8"?>
<svg id="_图层_1" data-name="图层 1" xmlns="http://www.w3.org/2000/svg" viewBox="0 0 50 50">
  <defs>
    <style>
      .cls-1 {
        opacity: .15;
      }
     
    </style>
  </defs>
  <path class="cls-2" d="M1.62,47.59c-.2,0-.4-.04-.6-.12C.4,47.22,0,46.64,0,45.97v-15.01C0,30.54,.12,30.12,.36,29.78c1.24-1.86,6.58-7.82,14.55-10.65,5.86-2.07,10.31-1.33,13.56-.79,1.66,.28,3.1,.52,3.83,.15,1.57-.79,1.99-1.85,2.14-2.95l-5.36,.89s-.5,.1-.93-.16-.57-.62-.57-.62c-.31-.57-.23-1.28,.21-1.76L37.87,2.78s.3-.25,.52-.32,.53-.05,.53-.05c.44,0,.87,.2,1.16,.53l9.5,11c.42,.49,.55,1.19,.25,1.75,0,0-.19,.45-.57,.61s-1,.16-1,.16l-5.72-.62c-.02,2.62-.25,7.52-4.4,12.67h0c-3.06,3.79-7.24,4.38-11.66,5-2.91,.41-5.91,.83-9.01,2.15-4.35,1.86-9.23,5.63-14.5,11.21l-.2,.21c-.31,.33-.73,.5-1.17,.5Zm1.27-16.39v11.64c4.8-4.75,9.31-8.05,13.46-9.82,3.45-1.47,6.79-1.94,9.74-2.36,4.18-.59,7.47-1.05,9.82-3.96h0c3.75-4.65,3.76-9.13,3.76-11.29,0-.3,0-.55,0-.77,.02-.52,.25-1.01,.65-1.34,.39-.34,.93-.5,1.44-.44l3.39,.37-6.26-7.25-6.34,6.96,2.68-.45c.58-.1,1.15,.08,1.58,.47,.43,.4,.65,.96,.61,1.54l-.02,.25c-.11,1.6-.31,4.57-3.82,6.33-1.57,.78-3.43,.47-5.6,.11-3.1-.52-6.96-1.16-12.12,.66-7.7,2.72-12.19,8.3-12.98,9.35ZM41.44,15.72s0,0,0,0h0Zm-6.9-1.45s0,0,0,.01h0Zm5.35-9.42h0s0,0,0,0Z"/>
  <path class="cls-1" d="M37.03,27.61c4.56-5.65,4.02-11.05,4.09-12.91,0-.25,.23-.43,.48-.41,1.45,.16,5.83,.63,6.83,.74,.08,0,.12-.08,.07-.14L39,3.9c-.05-.05-.13-.05-.17,0l-9.98,10.96c-.05,.06,0,.15,.07,.14,1.01-.17,5-.83,6.55-1.09,.29-.05,.54,.18,.51,.47-.12,1.53-.11,3.93-3.05,5.4s-8.49-2.5-17.55,.71C7.21,23.38,2.27,29.51,1.56,30.58c-.08,.12-.11,.25-.11,.39v15.01c0,.16,.19,.23,.29,.12,1.42-1.49,8.22-9.59,15.33-12.63,8.08-3.45,15.42-.22,19.96-5.86Z"/>
  <g>
    <path class="cls-2" d="M2.79,34.81h2.07c.58,0,1.04-.47,1.04-1.04s-.47-1.04-1.04-1.04H2.79c-.58,0-1.04,.47-1.04,1.04s.47,1.04,1.04,1.04Z"/>
    <path class="cls-2" d="M4.85,36.59H2.79c-.58,0-1.04,.47-1.04,1.04s.47,1.04,1.04,1.04h2.07c.58,0,1.04-.47,1.04-1.04s-.47-1.04-1.04-1.04Z"/>
  </g>
</svg>
