<?xml version="1.0" encoding="UTF-8"?>
<svg id="_图层_1" data-name="图层 1" xmlns="http://www.w3.org/2000/svg" viewBox="0 0 50 50">
  <defs>
    <style>
      .cls-1 {
        opacity: .15;
      }

    </style>
  </defs>
  <path class="cls-1" d="M1.57,42.83c-.07,.23,.03,.48,.26,.57,2.59,1.08,14.38,3.82,27.16-3.89,12.38-7.47,11.76-20.18,11.86-22.97,0-.27,.25-.47,.52-.44l7.05,.77c.08,0,.13-.08,.08-.14l-9.84-11.39c-.05-.05-.13-.06-.18,0l-10.34,11.36c-.06,.06,0,.16,.08,.15,1.05-.17,5.15-.86,6.77-1.13,.3-.05,.57,.19,.54,.49-.16,2.19,.34,8.93-8.43,14.06-8.15,4.76-17.53-.23-20.21-2.02-.26-.17-.61-.04-.7,.25l1.85,8.03-6.45,6.31Z"/>
  <path class="cls-2" d="M6.57,36.53c.18-.15,.24-.38,.17-.6-.41-1.21-1.74-5.09-1.96-5.91-.14-.53-.47-1.25-.07-2.03s.78-.98,1.34-1.18c.57-.2,1.18-.12,1.67,.21,1.05,.7,10.54,6.74,18.7,1.97,.21-.12,.41-.24,.6-.36,6.33-3.96,6.93-8.7,7.07-11.35l-5.6,.93c-.64,.11-1.27-.2-1.58-.77-.31-.57-.22-1.27,.21-1.75l10.34-11.35c.29-.33,.72-.51,1.16-.51,.44,0,.86,.2,1.15,.53l9.84,11.39c.41,.48,.49,1.14,.19,1.7-.29,.55-.89,.87-1.51,.8l-6-.65c-.08,4.33-.65,15.68-12.13,22.85-.13,.08-.26,.16-.4,.24-12.71,7.67-24.84,5.48-28.45,3.98-.91-.38-1.8-1.32-1.07-2.33,0,0,.25-.5,1.46-1.67,1-.98,3.91-3.39,4.85-4.17Zm-3.3,5.82c3.91,1.2,14.29,2.39,25.03-4.09,.12-.07,.23-.14,.35-.21,10.59-6.62,10.75-17.36,10.81-20.92,0-.26,0-.48,.01-.66,.02-.52,.26-1.02,.65-1.36,.4-.34,.93-.51,1.45-.45l3.66,.4-6.65-7.7-6.74,7.4,2.95-.49c.58-.1,1.16,.08,1.59,.47,.43,.39,.65,.95,.61,1.54-.01,.17-.02,.37-.03,.6-.12,2.84-.36,9.5-9.11,14.59-8.28,4.83-17.44,.46-20.65-1.4l2.2,6.42c.07,.21,.01,.45-.16,.6l-5.99,5.27ZM48.62,15.42h0s0,0,0,0ZM2.99,43.23h0s0,0,0,0ZM29.25,17.62h0s0,0,0,0Zm10.34-11.36h0s0,0,0,0Z"/>
</svg>
