<?xml version="1.0" encoding="UTF-8"?>
<svg id="_图层_1" data-name="图层 1" xmlns="http://www.w3.org/2000/svg" viewBox="0 0 50 50">
  <defs>
    <style>
      .cls-1 {
        opacity: .15;
      }

    </style>
  </defs>
  <path class="cls-1" d="M1.46,42.86l4.62-14.39c.1-.3,.45-.42,.7-.25,2.69,1.8,12.1,6.8,20.29,2.03,8.81-5.14,8.3-11.91,8.46-14.11,.02-.3-.25-.54-.55-.49-1.62,.27-5.75,.96-6.8,1.13-.08,.01-.13-.08-.08-.15l10.38-11.4c.05-.05,.13-.05,.18,0l9.88,11.43c.05,.06,0,.15-.08,.14l-7.07-.77c-.27-.03-.51,.17-.52,.44-.1,2.8,.52,15.55-11.9,23.05s-24.65,4.98-27.26,3.9c-.22-.09-.33-.34-.26-.57Z"/>
  <path class="cls-2" d="M30.11,40.52c-.13,.08-.26,.16-.4,.24-12.76,7.7-24.93,5.5-28.55,4-.92-.38-1.38-1.38-1.07-2.34h0s4.62-14.39,4.62-14.39c.18-.57,.62-1.02,1.19-1.22,.57-.2,1.18-.12,1.68,.21,1.06,.71,10.58,6.76,18.77,1.98,.21-.12,.41-.24,.6-.36,6.35-3.97,6.96-8.73,7.1-11.39l-5.62,.93c-.64,.11-1.28-.2-1.58-.77-.31-.57-.22-1.28,.21-1.75l10.37-11.4c.29-.33,.72-.51,1.17-.51,.44,0,.87,.2,1.16,.53l9.88,11.43c.41,.48,.49,1.15,.2,1.7-.3,.56-.89,.87-1.51,.8l-6.02-.65c-.08,4.34-.65,15.74-12.17,22.94Zm-27,1.89c3.92,1.21,14.34,2.4,25.12-4.1,.12-.07,.23-.14,.35-.21,10.63-6.64,10.79-17.43,10.85-21,0-.26,0-.48,.01-.66,.02-.53,.26-1.02,.65-1.37,.4-.34,.93-.51,1.46-.45l3.67,.4-6.67-7.72-6.77,7.43,2.96-.49c.58-.1,1.17,.08,1.6,.47,.43,.4,.66,.96,.61,1.54-.01,.17-.02,.37-.03,.6-.12,2.85-.36,9.53-9.14,14.64-8.31,4.85-17.5,.46-20.72-1.4l-3.96,12.33ZM48.62,15.38h0s0,0,0,0ZM2.82,43.3h0s0,0,0,0ZM29.17,17.59h0s0,0,0,0Zm10.38-11.4h0s0,0,0,0Z"/>
</svg>
