<?xml version="1.0" encoding="UTF-8"?>
<svg id="_图层_1" data-name="图层 1" xmlns="http://www.w3.org/2000/svg" viewBox="0 0 50 50">
  <defs>
    
  </defs>
  <path class="cls-1" d="M45.91,2H4.09c-1.15,0-2.09,.94-2.09,2.09v6.27c0,1.15,.94,2.09,2.09,2.09,1.15,0,2.09-.94,2.09-2.09V6.18H22.91V43.82h-6.27c-1.15,0-2.09,.94-2.09,2.09s.94,2.09,2.09,2.09h16.73c1.15,0,2.09-.93,2.09-2.09,0-1.15-.93-2.09-2.09-2.09h-6.28V6.18h16.73v4.18c0,1.15,.93,2.09,2.09,2.09,1.15,0,2.09-.93,2.09-2.09h0V4.09c0-1.15-.94-2.09-2.09-2.09Z"/>
</svg>
