<?xml version="1.0" encoding="UTF-8"?>
<svg id="_图层_1" data-name="图层 1" xmlns="http://www.w3.org/2000/svg" viewBox="0 0 50 50">
  <defs>
    
  </defs>
  <path class="cls-1" d="M43.85,35.53V14.47c3.66-.94,5.87-4.67,4.93-8.33-.94-3.66-4.67-5.87-8.33-4.93-2.42,.62-4.31,2.51-4.93,4.93H14.47C13.53,2.48,9.81,.28,6.15,1.22,2.48,2.15,.28,5.88,1.22,9.54c.62,2.42,2.51,4.31,4.93,4.93v21.06c-3.66,.94-5.87,4.67-4.93,8.33,.94,3.66,4.67,5.87,8.33,4.93,2.42-.62,4.31-2.51,4.93-4.93h21.06c.94,3.66,4.67,5.87,8.33,4.93,3.66-.94,5.87-4.67,4.93-8.33-.62-2.42-2.51-4.31-4.93-4.93m-1.71-31.1c1.89,0,3.43,1.53,3.43,3.43s-1.53,3.43-3.43,3.43-3.43-1.53-3.43-3.43,1.53-3.43,3.43-3.43M4.43,7.86c0-1.89,1.53-3.43,3.43-3.43s3.43,1.53,3.43,3.43-1.53,3.43-3.43,3.43-3.43-1.53-3.43-3.43m3.43,37.71c-1.89,0-3.43-1.53-3.43-3.43s1.53-3.43,3.43-3.43,3.43,1.53,3.43,3.43-1.53,3.43-3.43,3.43m27.67-5.14H14.47c-.63-2.4-2.5-4.27-4.9-4.9V14.47c2.4-.63,4.27-2.5,4.9-4.9h21.06c.63,2.4,2.5,4.27,4.9,4.9v21.06c-2.4,.62-4.27,2.5-4.9,4.9m6.61,5.14c-1.89,0-3.43-1.53-3.43-3.43s1.53-3.43,3.43-3.43,3.43,1.53,3.43,3.43c0,1.89-1.54,3.43-3.43,3.43"/>
</svg>
