<?xml version="1.0" encoding="UTF-8"?>
<svg id="_图层_1" data-name="图层 1" xmlns="http://www.w3.org/2000/svg" viewBox="0 0 50 50">
  <defs>
    
  </defs>
  <path class="cls-1" d="M34.86,31.75c-.83,0-1.5,.67-1.5,1.5v5.63c0,1.22-.99,2.21-2.21,2.21H5.53c-1.22,0-2.21-.99-2.21-2.21V11.12c0-1.22,.99-2.21,2.21-2.21H31.15c1.22,0,2.21,.99,2.21,2.21v6.36c0,.83,.67,1.5,1.5,1.5s1.5-.67,1.5-1.5v-6.36c0-2.87-2.33-5.21-5.21-5.21H5.53C2.66,5.91,.33,8.25,.33,11.12v27.77c0,2.87,2.33,5.21,5.21,5.21H31.15c2.87,0,5.21-2.33,5.21-5.21v-5.63c0-.83-.67-1.5-1.5-1.5Z"/>
  <path class="cls-1" d="M49.18,24.26l-6.89-6.21c-.61-.55-1.56-.51-2.12,.11-.55,.62-.5,1.56,.11,2.12l3.57,3.22H25.36c-.83,0-1.5,.67-1.5,1.5s.67,1.5,1.5,1.5h18.98l-3.99,3.16c-.65,.51-.76,1.46-.25,2.11,.3,.37,.73,.57,1.18,.57,.33,0,.65-.11,.93-.32l6.89-5.46c.35-.27,.55-.69,.57-1.13,.01-.44-.17-.87-.5-1.16Z"/>
</svg>
